<?xml version="1.0" encoding="UTF-8" standalone="no"?>
<!DOCTYPE svg PUBLIC "-//W3C//DTD SVG 1.1//EN" "http://www.w3.org/Graphics/SVG/1.1/DTD/svg11.dtd">
<svg width="100%" height="100%" viewBox="0 0 529 101" version="1.1" xmlns="http://www.w3.org/2000/svg" xmlns:xlink="http://www.w3.org/1999/xlink" xml:space="preserve" xmlns:serif="http://www.serif.com/" style="fill-rule:evenodd;clip-rule:evenodd;stroke-linejoin:round;stroke-miterlimit:2;">
    <g transform="matrix(1,0,0,1,-260.887,-812.469)">
        <g>
            <g transform="matrix(140,0,0,140,252,912)">
                <path d="M0.255,-0.711L0.438,-0.195L0.619,-0.711L0.812,-0.711L0.812,-0L0.665,-0L0.665,-0.194L0.679,-0.53L0.487,-0L0.387,-0L0.195,-0.529L0.21,-0.194L0.21,-0L0.063,-0L0.063,-0.711L0.255,-0.711Z" style="fill:rgb(149,25,12);fill-rule:nonzero;"/>
            </g>
            <g transform="matrix(100.515,0,0,100.515,374.637,912)">
                <path d="M0.647,-0.339C0.647,-0.269 0.635,-0.208 0.61,-0.155C0.586,-0.103 0.55,-0.062 0.504,-0.033C0.458,-0.005 0.405,0.01 0.346,0.01C0.287,0.01 0.234,-0.004 0.188,-0.033C0.142,-0.061 0.106,-0.101 0.081,-0.154C0.055,-0.207 0.042,-0.267 0.042,-0.335L0.042,-0.371C0.042,-0.441 0.055,-0.502 0.08,-0.555C0.105,-0.609 0.141,-0.649 0.187,-0.678C0.233,-0.706 0.285,-0.721 0.345,-0.721C0.404,-0.721 0.457,-0.706 0.503,-0.678C0.549,-0.649 0.584,-0.609 0.61,-0.555C0.635,-0.502 0.647,-0.441 0.647,-0.371L0.647,-0.339ZM0.499,-0.372C0.499,-0.446 0.486,-0.503 0.459,-0.542C0.432,-0.58 0.394,-0.6 0.345,-0.6C0.296,-0.6 0.258,-0.58 0.231,-0.542C0.204,-0.504 0.191,-0.448 0.19,-0.374L0.19,-0.339C0.19,-0.267 0.204,-0.21 0.23,-0.17C0.257,-0.13 0.296,-0.11 0.346,-0.11C0.395,-0.11 0.433,-0.13 0.459,-0.168C0.485,-0.207 0.499,-0.263 0.499,-0.337L0.499,-0.372Z" style="fill:rgb(149,25,12);fill-rule:nonzero;"/>
            </g>
            <g transform="matrix(100.515,0,0,100.515,442.956,912)">
                <path d="M0.326,-0.176L0.487,-0.711L0.65,-0.711L0.403,-0L0.25,-0L0.003,-0.711L0.166,-0.711L0.326,-0.176Z" style="fill:rgb(149,25,12);fill-rule:nonzero;"/>
            </g>
            <g transform="matrix(100.515,0,0,100.515,508.674,912)">
                <path d="M0.491,-0.308L0.21,-0.308L0.21,-0.118L0.54,-0.118L0.54,-0L0.063,-0L0.063,-0.711L0.539,-0.711L0.539,-0.592L0.21,-0.592L0.21,-0.423L0.491,-0.423L0.491,-0.308Z" style="fill:rgb(149,25,12);fill-rule:nonzero;"/>
            </g>
            <g transform="matrix(140,0,0,140,565.213,912)">
                <path d="M0.491,-0.291L0.21,-0.291L0.21,-0L0.063,-0L0.063,-0.711L0.526,-0.711L0.526,-0.592L0.21,-0.592L0.21,-0.409L0.491,-0.409L0.491,-0.291Z" style="fill:rgb(149,25,12);fill-rule:nonzero;"/>
            </g>
            <g transform="matrix(100.515,0,0,100.515,641.913,912)">
                <path d="M0.21,-0.118L0.521,-0.118L0.521,-0L0.063,-0L0.063,-0.711L0.21,-0.711L0.21,-0.118Z" style="fill:rgb(149,25,12);fill-rule:nonzero;"/>
            </g>
            <g transform="matrix(100.515,0,0,100.515,696.342,912)">
                <rect x="0.073" y="-0.711" width="0.146" height="0.711" style="fill:rgb(149,25,12);fill-rule:nonzero;"/>
            </g>
            <g transform="matrix(100.515,0,0,100.515,726.477,912)">
                <path d="M0.318,-0.466L0.451,-0.711L0.62,-0.711L0.413,-0.358L0.625,-0L0.455,-0L0.318,-0.249L0.181,-0L0.011,-0L0.223,-0.358L0.016,-0.711L0.185,-0.711L0.318,-0.466Z" style="fill:rgb(149,25,12);fill-rule:nonzero;"/>
            </g>
        </g>
    </g>
</svg>
